<svg xmlns="http://www.w3.org/2000/svg" aria-hidden="true" style="position:absolute;width:0;height:0;overflow:hidden">
  <defs>
    <symbol id="icon-hourglass" viewBox="0 0 32 32">
      <path fill="none" stroke="#fafafa" stroke-linecap="round" stroke-linejoin="round" stroke-width="2.667" d="M24.217 2.667H7.783c-.617 0-1.117.5-1.117 1.117a13.4 13.4 0 0 0 3.925 9.475l1.626 1.626c.161.161.242.242.3.32a1.335 1.335 0 0 1 0 1.594c-.058.077-.139.158-.3.32l-1.626 1.626a13.4 13.4 0 0 0-3.925 9.475c0 .617.5 1.117 1.117 1.117h16.434c.617 0 1.117-.5 1.117-1.117a13.4 13.4 0 0 0-3.925-9.475l-1.626-1.626c-.161-.161-.242-.242-.3-.32a1.332 1.332 0 0 1 0-1.594c.058-.077.139-.158.3-.32l1.626-1.626a13.4 13.4 0 0 0 3.925-9.475c0-.617-.5-1.117-1.117-1.117z" style="stroke:var(--color1, #fafafa)"/>
    </symbol>
    <symbol id="icon-brush" viewBox="0 0 32 32">
      <path fill="none" stroke="#fafafa" stroke-linecap="round" stroke-linejoin="round" stroke-width="2.667" d="M17.037 20 12 14.963M2.667 29.333c2.667 0 6.144.456 7.966-1.367a4.668 4.668 0 0 0-6.6-6.6c-1.823 1.823 0 5.3-1.367 7.966z" style="stroke:var(--color1, #fafafa)"/>
      <path fill="none" stroke="#fafafa" stroke-linecap="round" stroke-linejoin="round" stroke-width="2.667" d="M10.667 21.333c-.655-.655-.983-.983-1.168-1.326a2.668 2.668 0 0 1 .05-2.623c.198-.336.538-.651 1.218-1.28L23.924 3.921a2.94 2.94 0 0 1 4.153 4.153L15.894 21.231c-.63.68-.944 1.02-1.28 1.218-.805.475-1.8.495-2.623.051-.343-.185-.671-.513-1.326-1.168z" style="stroke:var(--color1, #fafafa)"/>
    </symbol>
    <symbol id="icon-message-chat-circle" viewBox="0 0 32 32">
      <path fill="none" stroke="#fafafa" stroke-linecap="round" stroke-linejoin="round" stroke-width="2.667" d="M8.126 14.972A10.66 10.66 0 0 1 8 13.334C8 7.443 12.807 2.667 18.737 2.667s10.737 4.776 10.737 10.667c0 1.331-.245 2.605-.693 3.779-.093.244-.14.366-.161.461s-.029.161-.031.257c-.002.097.011.205.037.42l.537 4.36c.058.472.087.708.009.88a.667.667 0 0 1-.343.335c-.173.075-.409.04-.879-.029l-4.247-.623a2.965 2.965 0 0 0-.434-.048c-.1.001-.169.008-.267.028s-.225.068-.477.163a10.78 10.78 0 0 1-3.787.683c-.558 0-1.105-.042-1.64-.124m-6.923 5.457c3.953 0 7.158-3.283 7.158-7.333s-3.205-7.333-7.158-7.333c-3.953 0-7.158 3.283-7.158 7.333 0 .814.13 1.597.369 2.329.101.309.152.464.168.57.017.11.02.172.014.284-.006.107-.033.227-.086.469l-.815 3.682 3.993-.545c.218-.03.327-.045.422-.044.1.001.153.006.252.026.093.019.232.067.51.165a6.994 6.994 0 0 0 2.332.398z" style="stroke:var(--color1, #fafafa)"/>
    </symbol>
    <symbol id="icon-user" viewBox="0 0 32 32">
      <path fill="none" stroke="#fafafa" stroke-linecap="round" stroke-linejoin="round" stroke-width="2.667" d="M26.667 28c0-1.861 0-2.791-.23-3.548a5.333 5.333 0 0 0-3.556-3.556c-.757-.23-1.687-.23-3.548-.23h-6.667c-1.861 0-2.791 0-3.548.23a5.335 5.335 0 0 0-3.556 3.556c-.23.757-.23 1.687-.23 3.548M16 16a6 6 0 1 0 0-12 6 6 0 0 0 0 12z" style="stroke:var(--color1, #fafafa)"/>
    </symbol>
    <symbol id="icon-menu-05" viewBox="0 0 32 32">
      <path stroke-linecap="round" stroke-linejoin="round" stroke-width="2.286" d="M4 11.333h24M4 20.667h24"/>
    </symbol>
    <symbol id="icon-Instagram" viewBox="0 0 32 32">
      <path d="M5.75 2.9v24.833H2V2.9h3.75zm13.834 25.167c-2.244 0-4.217-.516-5.917-1.55-1.689-1.033-3.011-2.5-3.967-4.4-.944-1.911-1.417-4.172-1.417-6.783 0-2.644.478-4.917 1.433-6.817.967-1.911 2.289-3.378 3.967-4.4 1.678-1.033 3.589-1.55 5.733-1.55 1.333 0 2.578.2 3.733.6a9.73 9.73 0 0 1 3.1 1.683 9.502 9.502 0 0 1 2.25 2.6 9.434 9.434 0 0 1 1.217 3.3h-3.833a7.576 7.576 0 0 0-.933-1.983 6.003 6.003 0 0 0-1.4-1.5 5.724 5.724 0 0 0-1.85-.95c-.678-.222-1.433-.333-2.267-.333-1.4 0-2.661.361-3.783 1.083-1.122.711-2.011 1.761-2.667 3.15S12 13.306 12 15.317c0 2.011.328 3.711.983 5.1s1.556 2.444 2.7 3.167c1.144.711 2.444 1.067 3.9 1.067 1.344 0 2.517-.272 3.517-.817 1-.556 1.778-1.333 2.333-2.333s.833-2.183.833-3.55l.983.183h-7.1v-3.1h9.767v2.833c0 2.089-.445 3.894-1.333 5.417a9.054 9.054 0 0 1-3.667 3.533c-1.556.833-3.333 1.25-5.333 1.25z"/>
    </symbol>
    <symbol id="icon-GitHub" viewBox="0 0 32 32">
      <path d="M8.523 24.227c-1.53 0-2.875-.352-4.034-1.057-1.152-.705-2.053-1.705-2.705-3-.644-1.303-.966-2.845-.966-4.625 0-1.803.326-3.352.977-4.648.659-1.303 1.561-2.303 2.705-3C5.644 7.192 6.947 6.84 8.409 6.84c.909 0 1.758.136 2.545.409a6.64 6.64 0 0 1 3.648 2.921 6.42 6.42 0 0 1 .83 2.25h-2.614a5.174 5.174 0 0 0-.636-1.352 4.09 4.09 0 0 0-.955-1.023 3.908 3.908 0 0 0-1.261-.648 4.926 4.926 0 0 0-1.545-.227c-.955 0-1.814.246-2.58.739-.765.485-1.371 1.201-1.818 2.148s-.67 2.106-.67 3.477.223 2.53.67 3.477 1.061 1.667 1.841 2.159c.78.485 1.667.727 2.659.727.917 0 1.716-.186 2.398-.557.682-.379 1.212-.909 1.591-1.591s.568-1.489.568-2.42l.67.125H8.909V15.34h6.659v1.932c0 1.424-.303 2.655-.909 3.693a6.17 6.17 0 0 1-2.5 2.409c-1.061.568-2.273.852-3.636.852zm8.83-.227V7.068h2.557v7.364h8.432V7.068h2.557V24h-2.557v-7.375H19.91V24h-2.557z"/>
    </symbol>
    <symbol id="icon-YouTube" viewBox="0 0 32 32">
      <path d="M.821 7.405h3.036L8.5 15.476h.19l4.619-8.071h3.06L9.928 18.179v6.964H7.249v-6.964L.82 7.405zm16.048 2.297V7.404h13.738v2.298h-5.524v15.44h-2.667V9.702h-5.548z"/>
    </symbol>
    <symbol id="icon-Facebook" viewBox="0 0 32 32">
      <path d="M1.667 26.667V5.973h12.847v2.681H4.792v6.708h8.792v2.667H4.792v8.639H1.667zm14.903 0V5.973h7.597c1.463 0 2.676.241 3.639.722s1.681 1.134 2.153 1.958c.481.815.722 1.732.722 2.75 0 .861-.162 1.588-.486 2.181-.315.593-.736 1.065-1.264 1.417s-1.111.611-1.75.778v.194c.694.037 1.37.259 2.028.667s1.199.986 1.625 1.736c.435.741.653 1.648.653 2.722 0 1.056-.25 2.005-.75 2.847-.491.833-1.25 1.495-2.278 1.986s-2.347.736-3.958.736H16.57zM19.695 24h4.5c1.5 0 2.574-.292 3.222-.875s.972-1.31.972-2.181c0-.657-.167-1.255-.5-1.792-.324-.546-.792-.982-1.403-1.306s-1.333-.486-2.167-.486h-4.625v6.639zm0-9.069h4.194c.694 0 1.324-.134 1.889-.403s1.009-.648 1.333-1.139c.333-.5.5-1.079.5-1.736 0-.852-.301-1.565-.903-2.139-.593-.583-1.505-.875-2.736-.875h-4.278v6.292z"/>
    </symbol>
    <symbol id="icon-arrow-narrow-right-11" viewBox="0 0 32 32">
      <path stroke-linecap="round" stroke-linejoin="round" stroke-width="2" d="M5.333 16h21.333M18.667 8l8 8-8 8"/>
    </symbol>
    <symbol id="icon-arrow-narrow-left" viewBox="0 0 32 32">
      <path stroke-linecap="round" stroke-linejoin="round" stroke-width="2" d="M26.667 16H5.334M13.333 24l-8-8 8-8"/>
    </symbol>
    <symbol id="icon-arrow-up" viewBox="0 0 32 32">
      <path stroke-width="3.2" d="m24 20-8-8-8 8"/>
    </symbol>
    <symbol id="icon-arrow-down" viewBox="0 0 32 32">
      <path stroke-width="3.2" d="m24 12-8 8-8-8"/>
    </symbol>
    <symbol id="icon-x1" viewBox="0 0 32 32">
      <path stroke-linecap="round" stroke-linejoin="round" stroke-width="2.667" d="M24 8 8 24M8 8l16 16"/>
    </symbol>
  </defs>
</svg>
